<?xml version="1.0" standalone="no"?>
<!DOCTYPE svg PUBLIC "-//W3C//DTD SVG 20010904//EN"
 "http://www.w3.org/TR/2001/REC-SVG-20010904/DTD/svg10.dtd">
<svg version="1.0" xmlns="http://www.w3.org/2000/svg"
 width="60" height="60" viewBox="0 0 1000.000000 1000.000000"
 preserveAspectRatio="xMidYMid meet">

<g transform="translate(0.000000,1000.000000) scale(0.100000,-0.100000)"
fill="#000000" stroke="none">
<path d="M1520 8135 c-382 -70 -683 -346 -791 -725 -21 -75 -24 -106 -24 -255
0 -147 3 -181 23 -250 23 -80 27 -92 76 -195 79 -170 256 -349 432 -438 179
-90 317 -115 609 -110 197 3 213 4 258 27 208 102 217 361 17 479 -44 27 -49
27 -280 33 -206 6 -242 9 -295 28 -109 39 -199 117 -252 217 -143 272 22 602
327 654 46 8 646 10 2105 8 l2040 -3 60 -24 c161 -64 269 -197 297 -364 35
-210 -114 -436 -327 -496 -28 -9 -360 -13 -1140 -17 -917 -4 -1113 -8 -1178
-20 -238 -45 -464 -185 -608 -377 -88 -117 -140 -224 -182 -377 -21 -74 -21
-92 -24 -1605 -4 -1383 -2 -1540 13 -1630 35 -214 118 -378 273 -538 133 -138
295 -231 488 -279 131 -33 350 -31 483 4 52 14 126 40 164 57 238 108 440 324
532 570 65 173 64 149 64 1345 0 1065 -1 1082 -21 1126 -94 209 -372 227 -487
32 l-27 -47 -5 -1100 -5 -1100 -24 -60 c-108 -271 -393 -386 -646 -261 -112
55 -192 146 -236 266 l-24 65 0 1500 0 1500 23 65 c53 156 186 276 340 309 38
8 360 11 1106 11 674 0 1080 3 1127 10 343 48 636 263 776 568 176 385 90 844
-211 1130 -129 122 -273 203 -454 255 l-77 22 -2120 2 c-1751 1 -2133 -1
-2195 -12z"/>
<path d="M6655 8139 c-38 -4 -98 -13 -132 -19 l-62 -12 76 -50 c133 -87 249
-213 332 -360 31 -55 35 -58 70 -58 60 0 198 -27 286 -55 428 -138 744 -498
831 -945 12 -63 14 -317 14 -1642 0 -1082 -3 -1583 -11 -1620 -52 -259 -153
-456 -324 -636 -172 -182 -391 -303 -645 -358 -116 -25 -362 -25 -477 -1 -465
99 -820 427 -948 878 -43 153 -45 194 -45 1099 l0 865 -24 50 c-77 167 -284
205 -413 76 -77 -77 -73 -22 -73 -956 0 -978 5 -1054 79 -1305 179 -607 674
-1060 1311 -1201 73 -16 143 -22 300 -26 181 -5 220 -3 335 17 607 103 1120
521 1330 1085 61 163 84 258 105 425 6 55 10 617 10 1615 -1 1604 -1 1613 -44
1810 -23 103 -82 267 -133 370 -158 316 -411 580 -719 750 -305 169 -684 244
-1029 204z"/>
</g>
</svg>
